# xmcd CD database file
#
# Track frame offsets:
#	150
#	45490
#	84185
#	111115
#	138640
#	176402
#	196172
#	234910
#
# Disc length: 3706 seconds
#
# Revision: 0
# Processed by: cddbd v1.5.1PL0 Copyright (c) Steve Scherf et al.
# Submitted via: CDex 1.60beta1
#
DISCID=5a0e7808
DTITLE=Natraj - Deccan Dance
DYEAR=1900
DGENRE=Jazz
TTITLE0=Kalyani
TTITLE1=Na Yella Bo
TTITLE2=Raga Bihag, Part 1
TTITLE3=Raga Bihag, Part 2
TTITLE4=Don't Utter
TTITLE5=Duet
TTITLE6=Introduction - Mukhras Not Tukras
TTITLE7=Blue Tumbleweed
EXTD=
EXTT0=
EXTT1=
EXTT2=
EXTT3=
EXTT4=
EXTT5=
EXTT6=
EXTT7=
PLAYORDER=
